<?xml version="1.0" encoding="utf-8"?>
<!-- Generator: Adobe Illustrator 27.1.1, SVG Export Plug-In . SVG Version: 6.00 Build 0)  -->
<svg version="1.1" id="Layer_1" xmlns="http://www.w3.org/2000/svg" xmlns:xlink="http://www.w3.org/1999/xlink" x="0px" y="0px"
	 viewBox="0 0 200 200" style="enable-background:new 0 0 200 200;" xml:space="preserve">
<style type="text/css">
	.st0{fill-rule:evenodd;clip-rule:evenodd;fill:#006C35;}
	.st1{fill:#006C35;}
</style>
<path id="path4334" class="st0" d="M105,125.4c-0.3-2.1,2-4.3,4-4.4c1.8-0.1,3.5,1.3,4.2,3.3c2.8,8.1,7.3,21.1,7.3,21.1l43.7-0.2
	c12.4-17.7,16.4-34.9,13.9-55c-0.2-1.6,0.7-3.9,3-4.1c3-0.3,3.7,3.6,3.9,5.1c6.3,46.7-28.8,89.1-72.6,93.7
	C112.4,184.8,107.3,142.9,105,125.4L105,125.4z"/>
<path id="path4336" class="st0" d="M174.6,91.7c-0.3-1.3-0.7-4.4-3.7-4.2c-3.1,0.2-3.1,3.5-2.9,5.1c1.7,20.5-1.8,31.4-12.6,47.6h8.6
	C173.3,124,176.7,108.5,174.6,91.7L174.6,91.7z"/>
<path id="path4336-7" class="st0" d="M163.8,93.5c-0.3-1.3-0.7-4.4-3.7-4.2c-3.1,0.2-3.1,3.5-2.9,5.1c0.7,21.1-2.8,30.4-15.9,45.8
	h9.4C161.4,124.6,166,110.3,163.8,93.5L163.8,93.5z"/>
<path id="path4336-0" class="st0" d="M152.7,95.1c-0.3-1.3-0.7-4.4-3.7-4.2c-3.1,0.2-3.1,3.5-2.9,5.1c1.7,20.5-8.4,35.9-22.9,44.2
	h12.8C149.1,126.4,154.9,111.9,152.7,95.1z"/>
<path id="path4334-6" class="st0" d="M94.6,125.5c0.3-2.1-2-4.3-4-4.4c-1.8-0.1-3.5,1.3-4.2,3.3c-2.8,8.1-7.3,21.1-7.3,21.1
	l-43.7-0.2c-12.4-17.7-16.4-34.9-13.9-55c0.2-1.6-0.7-3.9-3-4.1c-3-0.3-3.7,3.6-3.9,5.1C8.3,138,43.4,180.4,87.2,185
	C87.2,185,92.3,143.1,94.6,125.5L94.6,125.5z"/>
<path id="path4336-8" class="st0" d="M25,91.9c0.3-1.3,0.7-4.4,3.7-4.2c3.1,0.2,3.1,3.5,2.9,5.1c-1.7,20.5,1.8,31.4,12.6,47.6h-8.6
	C26.3,124.2,22.9,108.6,25,91.9z"/>
<path id="path4336-7-3" class="st0" d="M35.8,93.7c0.3-1.3,0.7-4.4,3.7-4.2c3.1,0.2,3.1,3.5,2.9,5.1c-0.7,21.1,2.8,30.4,15.9,45.8
	h-9.4C38.2,124.8,33.6,110.4,35.8,93.7z"/>
<path id="path4336-0-0" class="st0" d="M46.8,95.3c0.3-1.3,0.7-4.4,3.7-4.2c3.1,0.2,3.1,3.5,2.9,5.1c-1.7,20.5,8.4,35.9,22.9,44.2
	H63.6C50.4,126.6,44.7,112.1,46.8,95.3z"/>
<g>
	<g>
		<path class="st1" d="M35.2,41.4c0.9-2.8,3.1-4.5,5.1-6.3c10.8-9.9,23.2-16.7,37.3-20.3c10.8-2.8,21.8-3.4,32.9-2
			c15,1.9,28.7,7.3,40.8,16.4c3.6,2.7,7,5.9,10.3,9c0.9,0.9,1.4,2.2,2.1,3.3c0,0.8,0,1.7,0,2.5c-0.4,0.9-0.8,1.9-1.3,2.7
			c-2.4,3.2-6.7,3.5-9.8,0.7c-2.4-2.1-4.6-4.4-7.1-6.3c-10.8-8.5-23-13.8-36.6-15.3C85,22.9,64.4,29.9,47.1,46.5
			c-1.1,1-2.4,2-3.8,2.4c-3,1-6.3-0.9-7.5-3.9c-0.1-0.4-0.3-0.8-0.5-1.1C35.2,43.1,35.2,42.2,35.2,41.4z"/>
		<path class="st1" d="M101.9,36.3c16,0.3,31.7,7.1,44.3,20.7c2.7,2.8,2.6,6.8-0.1,9.3c-2.6,2.5-6.6,2.4-9.2-0.4
			c-5.4-5.8-11.7-10.2-19-13.1C99.3,45.3,77.4,50,63.5,64.4c-0.6,0.6-1.2,1.3-1.9,1.9c-2.5,2.3-6.2,2.3-8.7,0.1
			c-2.5-2.3-2.9-6-0.8-8.6c2.9-3.7,6.5-6.7,10.3-9.5C73.4,40.4,86.1,36.3,101.9,36.3z"/>
		<path class="st1" d="M126,87.1c-2.4-0.1-4-1.1-5.5-2.7c-1.9-2.1-3.8-4.2-5.9-5.9c-8.5-6.6-21.7-6.6-30.2,0
			C82,80.4,80,82.8,77.9,85c-2.7,2.8-7,2.8-9.6-0.1c-2.1-2.4-2.2-5.7-0.2-8.4c2.7-3.6,5.9-6.7,9.6-9.3c17.3-11.7,40.8-7.6,53.1,9.2
			c1.6,2.2,2,4.6,0.8,7.1C130.4,85.9,128.4,87,126,87.1z"/>
		<path class="st1" d="M99.4,114c-8.1,0-14.5-6.6-14.5-14.7c0.1-8,6.6-14.5,14.6-14.4c8.1,0,14.5,6.6,14.5,14.7
			C114,107.6,107.5,114,99.4,114z"/>
	</g>
</g>
</svg>
